<svg id="svgQrWrapper" viewBox="0 0 300 300" xmlns="http://www.w3.org/2000/svg" xmlns:xlink="http://www.w3.org/1999/xlink" style="width: 100%; height: 100%; background-color: rgb(255, 255, 255);"><svg><g transform="translate(9, 9)scale(0.95)" fill="none"><svg width="300" height="300"><style>.background-color{ fill: #fff; }.corners-square-color-0-0{ fill: #000000; }.corners-dot-color-0-0{ fill: #000000; }.corners-square-color-1-0{ fill: #000000; }.corners-dot-color-1-0{ fill: #000000; }.corners-square-color-0-1{ fill: #000000; }.corners-dot-color-0-1{ fill: #000000; }</style><defs><clipPath id="clip-path-dot-color"><rect x="0" y="96" width="12" height="12" transform="rotate(0,6,102)"/><rect x="0" y="120" width="12" height="12" transform="rotate(0,6,126)"/><rect x="0" y="168" width="12" height="12" transform="rotate(0,6,174)"/><rect x="0" y="192" width="12" height="12" transform="rotate(0,6,198)"/><rect x="12" y="96" width="12" height="12" transform="rotate(0,18,102)"/><rect x="12" y="108" width="12" height="12" transform="rotate(0,18,114)"/><rect x="12" y="132" width="12" height="12" transform="rotate(0,18,138)"/><rect x="12" y="192" width="12" height="12" transform="rotate(0,18,198)"/><rect x="24" y="96" width="12" height="12" transform="rotate(0,30,102)"/><rect x="24" y="108" width="12" height="12" transform="rotate(0,30,114)"/><rect x="24" y="120" width="12" height="12" transform="rotate(0,30,126)"/><rect x="24" y="144" width="12" height="12" transform="rotate(0,30,150)"/><rect x="24" y="156" width="12" height="12" transform="rotate(0,30,162)"/><rect x="24" y="168" width="12" height="12" transform="rotate(0,30,174)"/><rect x="24" y="180" width="12" height="12" transform="rotate(0,30,186)"/><rect x="36" y="180" width="12" height="12" transform="rotate(0,42,186)"/><rect x="36" y="192" width="12" height="12" transform="rotate(0,42,198)"/><rect x="48" y="96" width="12" height="12" transform="rotate(0,54,102)"/><rect x="48" y="132" width="12" height="12" transform="rotate(0,54,138)"/><rect x="48" y="156" width="12" height="12" transform="rotate(0,54,162)"/><rect x="48" y="192" width="12" height="12" transform="rotate(0,54,198)"/><rect x="60" y="108" width="12" height="12" transform="rotate(0,66,114)"/><rect x="60" y="120" width="12" height="12" transform="rotate(0,66,126)"/><rect x="60" y="132" width="12" height="12" transform="rotate(0,66,138)"/><rect x="72" y="96" width="12" height="12" transform="rotate(0,78,102)"/><rect x="72" y="120" width="12" height="12" transform="rotate(0,78,126)"/><rect x="72" y="144" width="12" height="12" transform="rotate(0,78,150)"/><rect x="72" y="168" width="12" height="12" transform="rotate(0,78,174)"/><rect x="72" y="192" width="12" height="12" transform="rotate(0,78,198)"/><rect x="84" y="108" width="12" height="12" transform="rotate(0,90,114)"/><rect x="84" y="120" width="12" height="12" transform="rotate(0,90,126)"/><rect x="84" y="132" width="12" height="12" transform="rotate(0,90,138)"/><rect x="84" y="144" width="12" height="12" transform="rotate(0,90,150)"/><rect x="84" y="156" width="12" height="12" transform="rotate(0,90,162)"/><rect x="84" y="180" width="12" height="12" transform="rotate(0,90,186)"/><rect x="84" y="192" width="12" height="12" transform="rotate(0,90,198)"/><rect x="96" y="0" width="12" height="12" transform="rotate(0,102,6)"/><rect x="96" y="36" width="12" height="12" transform="rotate(0,102,42)"/><rect x="96" y="48" width="12" height="12" transform="rotate(0,102,54)"/><rect x="96" y="60" width="12" height="12" transform="rotate(0,102,66)"/><rect x="96" y="72" width="12" height="12" transform="rotate(0,102,78)"/><rect x="96" y="84" width="12" height="12" transform="rotate(0,102,90)"/><rect x="96" y="96" width="12" height="12" transform="rotate(0,102,102)"/><rect x="96" y="108" width="12" height="12" transform="rotate(0,102,114)"/><rect x="96" y="144" width="12" height="12" transform="rotate(0,102,150)"/><rect x="96" y="192" width="12" height="12" transform="rotate(0,102,198)"/><rect x="96" y="204" width="12" height="12" transform="rotate(0,102,210)"/><rect x="96" y="240" width="12" height="12" transform="rotate(0,102,246)"/><rect x="96" y="264" width="12" height="12" transform="rotate(0,102,270)"/><rect x="96" y="276" width="12" height="12" transform="rotate(0,102,282)"/><rect x="96" y="288" width="12" height="12" transform="rotate(0,102,294)"/><rect x="108" y="12" width="12" height="12" transform="rotate(0,114,18)"/><rect x="108" y="36" width="12" height="12" transform="rotate(0,114,42)"/><rect x="108" y="96" width="12" height="12" transform="rotate(0,114,102)"/><rect x="108" y="180" width="12" height="12" transform="rotate(0,114,186)"/><rect x="108" y="228" width="12" height="12" transform="rotate(0,114,234)"/><rect x="108" y="240" width="12" height="12" transform="rotate(0,114,246)"/><rect x="108" y="252" width="12" height="12" transform="rotate(0,114,258)"/><rect x="108" y="264" width="12" height="12" transform="rotate(0,114,270)"/><rect x="108" y="276" width="12" height="12" transform="rotate(0,114,282)"/><rect x="120" y="0" width="12" height="12" transform="rotate(0,126,6)"/><rect x="120" y="12" width="12" height="12" transform="rotate(0,126,18)"/><rect x="120" y="24" width="12" height="12" transform="rotate(0,126,30)"/><rect x="120" y="48" width="12" height="12" transform="rotate(0,126,54)"/><rect x="120" y="72" width="12" height="12" transform="rotate(0,126,78)"/><rect x="120" y="84" width="12" height="12" transform="rotate(0,126,90)"/><rect x="120" y="108" width="12" height="12" transform="rotate(0,126,114)"/><rect x="120" y="120" width="12" height="12" transform="rotate(0,126,126)"/><rect x="120" y="132" width="12" height="12" transform="rotate(0,126,138)"/><rect x="120" y="156" width="12" height="12" transform="rotate(0,126,162)"/><rect x="120" y="168" width="12" height="12" transform="rotate(0,126,174)"/><rect x="120" y="180" width="12" height="12" transform="rotate(0,126,186)"/><rect x="120" y="192" width="12" height="12" transform="rotate(0,126,198)"/><rect x="120" y="216" width="12" height="12" transform="rotate(0,126,222)"/><rect x="120" y="228" width="12" height="12" transform="rotate(0,126,234)"/><rect x="120" y="240" width="12" height="12" transform="rotate(0,126,246)"/><rect x="120" y="252" width="12" height="12" transform="rotate(0,126,258)"/><rect x="120" y="288" width="12" height="12" transform="rotate(0,126,294)"/><rect x="132" y="24" width="12" height="12" transform="rotate(0,138,30)"/><rect x="132" y="60" width="12" height="12" transform="rotate(0,138,66)"/><rect x="132" y="84" width="12" height="12" transform="rotate(0,138,90)"/><rect x="132" y="108" width="12" height="12" transform="rotate(0,138,114)"/><rect x="132" y="144" width="12" height="12" transform="rotate(0,138,150)"/><rect x="132" y="180" width="12" height="12" transform="rotate(0,138,186)"/><rect x="132" y="192" width="12" height="12" transform="rotate(0,138,198)"/><rect x="132" y="216" width="12" height="12" transform="rotate(0,138,222)"/><rect x="132" y="228" width="12" height="12" transform="rotate(0,138,234)"/><rect x="132" y="240" width="12" height="12" transform="rotate(0,138,246)"/><rect x="132" y="252" width="12" height="12" transform="rotate(0,138,258)"/><rect x="132" y="264" width="12" height="12" transform="rotate(0,138,270)"/><rect x="132" y="276" width="12" height="12" transform="rotate(0,138,282)"/><rect x="132" y="288" width="12" height="12" transform="rotate(0,138,294)"/><rect x="144" y="24" width="12" height="12" transform="rotate(0,150,30)"/><rect x="144" y="48" width="12" height="12" transform="rotate(0,150,54)"/><rect x="144" y="72" width="12" height="12" transform="rotate(0,150,78)"/><rect x="144" y="96" width="12" height="12" transform="rotate(0,150,102)"/><rect x="144" y="120" width="12" height="12" transform="rotate(0,150,126)"/><rect x="144" y="144" width="12" height="12" transform="rotate(0,150,150)"/><rect x="144" y="168" width="12" height="12" transform="rotate(0,150,174)"/><rect x="144" y="180" width="12" height="12" transform="rotate(0,150,186)"/><rect x="144" y="192" width="12" height="12" transform="rotate(0,150,198)"/><rect x="144" y="204" width="12" height="12" transform="rotate(0,150,210)"/><rect x="144" y="216" width="12" height="12" transform="rotate(0,150,222)"/><rect x="144" y="228" width="12" height="12" transform="rotate(0,150,234)"/><rect x="144" y="288" width="12" height="12" transform="rotate(0,150,294)"/><rect x="156" y="0" width="12" height="12" transform="rotate(0,162,6)"/><rect x="156" y="12" width="12" height="12" transform="rotate(0,162,18)"/><rect x="156" y="36" width="12" height="12" transform="rotate(0,162,42)"/><rect x="156" y="96" width="12" height="12" transform="rotate(0,162,102)"/><rect x="156" y="108" width="12" height="12" transform="rotate(0,162,114)"/><rect x="156" y="120" width="12" height="12" transform="rotate(0,162,126)"/><rect x="156" y="144" width="12" height="12" transform="rotate(0,162,150)"/><rect x="156" y="156" width="12" height="12" transform="rotate(0,162,162)"/><rect x="156" y="180" width="12" height="12" transform="rotate(0,162,186)"/><rect x="156" y="192" width="12" height="12" transform="rotate(0,162,198)"/><rect x="156" y="240" width="12" height="12" transform="rotate(0,162,246)"/><rect x="156" y="276" width="12" height="12" transform="rotate(0,162,282)"/><rect x="168" y="0" width="12" height="12" transform="rotate(0,174,6)"/><rect x="168" y="12" width="12" height="12" transform="rotate(0,174,18)"/><rect x="168" y="24" width="12" height="12" transform="rotate(0,174,30)"/><rect x="168" y="72" width="12" height="12" transform="rotate(0,174,78)"/><rect x="168" y="84" width="12" height="12" transform="rotate(0,174,90)"/><rect x="168" y="108" width="12" height="12" transform="rotate(0,174,114)"/><rect x="168" y="180" width="12" height="12" transform="rotate(0,174,186)"/><rect x="168" y="192" width="12" height="12" transform="rotate(0,174,198)"/><rect x="168" y="204" width="12" height="12" transform="rotate(0,174,210)"/><rect x="168" y="240" width="12" height="12" transform="rotate(0,174,246)"/><rect x="168" y="252" width="12" height="12" transform="rotate(0,174,258)"/><rect x="168" y="264" width="12" height="12" transform="rotate(0,174,270)"/><rect x="168" y="276" width="12" height="12" transform="rotate(0,174,282)"/><rect x="168" y="288" width="12" height="12" transform="rotate(0,174,294)"/><rect x="180" y="0" width="12" height="12" transform="rotate(0,186,6)"/><rect x="180" y="24" width="12" height="12" transform="rotate(0,186,30)"/><rect x="180" y="36" width="12" height="12" transform="rotate(0,186,42)"/><rect x="180" y="48" width="12" height="12" transform="rotate(0,186,54)"/><rect x="180" y="60" width="12" height="12" transform="rotate(0,186,66)"/><rect x="180" y="84" width="12" height="12" transform="rotate(0,186,90)"/><rect x="180" y="144" width="12" height="12" transform="rotate(0,186,150)"/><rect x="180" y="168" width="12" height="12" transform="rotate(0,186,174)"/><rect x="180" y="180" width="12" height="12" transform="rotate(0,186,186)"/><rect x="180" y="204" width="12" height="12" transform="rotate(0,186,210)"/><rect x="180" y="216" width="12" height="12" transform="rotate(0,186,222)"/><rect x="180" y="228" width="12" height="12" transform="rotate(0,186,234)"/><rect x="180" y="252" width="12" height="12" transform="rotate(0,186,258)"/><rect x="180" y="264" width="12" height="12" transform="rotate(0,186,270)"/><rect x="180" y="288" width="12" height="12" transform="rotate(0,186,294)"/><rect x="192" y="0" width="12" height="12" transform="rotate(0,198,6)"/><rect x="192" y="24" width="12" height="12" transform="rotate(0,198,30)"/><rect x="192" y="48" width="12" height="12" transform="rotate(0,198,54)"/><rect x="192" y="72" width="12" height="12" transform="rotate(0,198,78)"/><rect x="192" y="96" width="12" height="12" transform="rotate(0,198,102)"/><rect x="192" y="108" width="12" height="12" transform="rotate(0,198,114)"/><rect x="192" y="120" width="12" height="12" transform="rotate(0,198,126)"/><rect x="192" y="156" width="12" height="12" transform="rotate(0,198,162)"/><rect x="192" y="192" width="12" height="12" transform="rotate(0,198,198)"/><rect x="192" y="204" width="12" height="12" transform="rotate(0,198,210)"/><rect x="192" y="216" width="12" height="12" transform="rotate(0,198,222)"/><rect x="192" y="228" width="12" height="12" transform="rotate(0,198,234)"/><rect x="192" y="240" width="12" height="12" transform="rotate(0,198,246)"/><rect x="192" y="264" width="12" height="12" transform="rotate(0,198,270)"/><rect x="192" y="276" width="12" height="12" transform="rotate(0,198,282)"/><rect x="204" y="96" width="12" height="12" transform="rotate(0,210,102)"/><rect x="204" y="120" width="12" height="12" transform="rotate(0,210,126)"/><rect x="204" y="156" width="12" height="12" transform="rotate(0,210,162)"/><rect x="204" y="168" width="12" height="12" transform="rotate(0,210,174)"/><rect x="204" y="192" width="12" height="12" transform="rotate(0,210,198)"/><rect x="204" y="240" width="12" height="12" transform="rotate(0,210,246)"/><rect x="204" y="264" width="12" height="12" transform="rotate(0,210,270)"/><rect x="204" y="276" width="12" height="12" transform="rotate(0,210,282)"/><rect x="216" y="96" width="12" height="12" transform="rotate(0,222,102)"/><rect x="216" y="120" width="12" height="12" transform="rotate(0,222,126)"/><rect x="216" y="132" width="12" height="12" transform="rotate(0,222,138)"/><rect x="216" y="156" width="12" height="12" transform="rotate(0,222,162)"/><rect x="216" y="168" width="12" height="12" transform="rotate(0,222,174)"/><rect x="216" y="192" width="12" height="12" transform="rotate(0,222,198)"/><rect x="216" y="216" width="12" height="12" transform="rotate(0,222,222)"/><rect x="216" y="240" width="12" height="12" transform="rotate(0,222,246)"/><rect x="216" y="288" width="12" height="12" transform="rotate(0,222,294)"/><rect x="228" y="96" width="12" height="12" transform="rotate(0,234,102)"/><rect x="228" y="132" width="12" height="12" transform="rotate(0,234,138)"/><rect x="228" y="144" width="12" height="12" transform="rotate(0,234,150)"/><rect x="228" y="156" width="12" height="12" transform="rotate(0,234,162)"/><rect x="228" y="168" width="12" height="12" transform="rotate(0,234,174)"/><rect x="228" y="192" width="12" height="12" transform="rotate(0,234,198)"/><rect x="228" y="240" width="12" height="12" transform="rotate(0,234,246)"/><rect x="240" y="96" width="12" height="12" transform="rotate(0,246,102)"/><rect x="240" y="108" width="12" height="12" transform="rotate(0,246,114)"/><rect x="240" y="156" width="12" height="12" transform="rotate(0,246,162)"/><rect x="240" y="168" width="12" height="12" transform="rotate(0,246,174)"/><rect x="240" y="180" width="12" height="12" transform="rotate(0,246,186)"/><rect x="240" y="192" width="12" height="12" transform="rotate(0,246,198)"/><rect x="240" y="204" width="12" height="12" transform="rotate(0,246,210)"/><rect x="240" y="216" width="12" height="12" transform="rotate(0,246,222)"/><rect x="240" y="228" width="12" height="12" transform="rotate(0,246,234)"/><rect x="240" y="240" width="12" height="12" transform="rotate(0,246,246)"/><rect x="252" y="96" width="12" height="12" transform="rotate(0,258,102)"/><rect x="252" y="132" width="12" height="12" transform="rotate(0,258,138)"/><rect x="252" y="168" width="12" height="12" transform="rotate(0,258,174)"/><rect x="252" y="204" width="12" height="12" transform="rotate(0,258,210)"/><rect x="252" y="216" width="12" height="12" transform="rotate(0,258,222)"/><rect x="252" y="276" width="12" height="12" transform="rotate(0,258,282)"/><rect x="252" y="288" width="12" height="12" transform="rotate(0,258,294)"/><rect x="264" y="108" width="12" height="12" transform="rotate(0,270,114)"/><rect x="264" y="120" width="12" height="12" transform="rotate(0,270,126)"/><rect x="264" y="132" width="12" height="12" transform="rotate(0,270,138)"/><rect x="264" y="156" width="12" height="12" transform="rotate(0,270,162)"/><rect x="264" y="180" width="12" height="12" transform="rotate(0,270,186)"/><rect x="264" y="240" width="12" height="12" transform="rotate(0,270,246)"/><rect x="264" y="252" width="12" height="12" transform="rotate(0,270,258)"/><rect x="264" y="264" width="12" height="12" transform="rotate(0,270,270)"/><rect x="264" y="276" width="12" height="12" transform="rotate(0,270,282)"/><rect x="264" y="288" width="12" height="12" transform="rotate(0,270,294)"/><rect x="276" y="108" width="12" height="12" transform="rotate(0,282,114)"/><rect x="276" y="132" width="12" height="12" transform="rotate(0,282,138)"/><rect x="276" y="144" width="12" height="12" transform="rotate(0,282,150)"/><rect x="276" y="180" width="12" height="12" transform="rotate(0,282,186)"/><rect x="276" y="204" width="12" height="12" transform="rotate(0,282,210)"/><rect x="276" y="216" width="12" height="12" transform="rotate(0,282,222)"/><rect x="276" y="228" width="12" height="12" transform="rotate(0,282,234)"/><rect x="276" y="240" width="12" height="12" transform="rotate(0,282,246)"/><rect x="276" y="264" width="12" height="12" transform="rotate(0,282,270)"/><rect x="276" y="276" width="12" height="12" transform="rotate(0,282,282)"/><rect x="276" y="288" width="12" height="12" transform="rotate(0,282,294)"/><rect x="288" y="96" width="12" height="12" transform="rotate(0,294,102)"/><rect x="288" y="168" width="12" height="12" transform="rotate(0,294,174)"/><rect x="288" y="192" width="12" height="12" transform="rotate(0,294,198)"/><rect x="288" y="216" width="12" height="12" transform="rotate(0,294,222)"/><rect x="288" y="252" width="12" height="12" transform="rotate(0,294,258)"/><rect x="288" y="288" width="12" height="12" transform="rotate(0,294,294)"/></clipPath><linearGradient id="dot-color" gradientUnits="userSpaceOnUse" x1="0" y1="150" x2="300" y2="150"><stop offset="0%" stop-color="#b3002d"/><stop offset="100%" stop-color="#3e7824"/></linearGradient></defs><rect x="0" y="0" height="300" width="300" clip-path="url('#clip-path-dot-color')" fill="url('#dot-color')"/><g class="corners-square-color-0-0"><rect x="0" y="0" width="12" height="12" transform="rotate(0,6,6)"/><rect x="0" y="12" width="12" height="12" transform="rotate(0,6,18)"/><rect x="0" y="24" width="12" height="12" transform="rotate(0,6,30)"/><rect x="0" y="36" width="12" height="12" transform="rotate(0,6,42)"/><rect x="0" y="48" width="12" height="12" transform="rotate(0,6,54)"/><rect x="0" y="60" width="12" height="12" transform="rotate(0,6,66)"/><rect x="0" y="72" width="12" height="12" transform="rotate(0,6,78)"/><rect x="12" y="0" width="12" height="12" transform="rotate(0,18,6)"/><rect x="12" y="72" width="12" height="12" transform="rotate(0,18,78)"/><rect x="24" y="0" width="12" height="12" transform="rotate(0,30,6)"/><rect x="24" y="72" width="12" height="12" transform="rotate(0,30,78)"/><rect x="36" y="0" width="12" height="12" transform="rotate(0,42,6)"/><rect x="36" y="72" width="12" height="12" transform="rotate(0,42,78)"/><rect x="48" y="0" width="12" height="12" transform="rotate(0,54,6)"/><rect x="48" y="72" width="12" height="12" transform="rotate(0,54,78)"/><rect x="60" y="0" width="12" height="12" transform="rotate(0,66,6)"/><rect x="60" y="72" width="12" height="12" transform="rotate(0,66,78)"/><rect x="72" y="0" width="12" height="12" transform="rotate(0,78,6)"/><rect x="72" y="12" width="12" height="12" transform="rotate(0,78,18)"/><rect x="72" y="24" width="12" height="12" transform="rotate(0,78,30)"/><rect x="72" y="36" width="12" height="12" transform="rotate(0,78,42)"/><rect x="72" y="48" width="12" height="12" transform="rotate(0,78,54)"/><rect x="72" y="60" width="12" height="12" transform="rotate(0,78,66)"/><rect x="72" y="72" width="12" height="12" transform="rotate(0,78,78)"/></g><g class="corners-dot-color-0-0"><rect x="24" y="24" width="12" height="12" transform="rotate(0,30,30)"/><rect x="24" y="36" width="12" height="12" transform="rotate(0,30,42)"/><rect x="24" y="48" width="12" height="12" transform="rotate(0,30,54)"/><rect x="36" y="24" width="12" height="12" transform="rotate(0,42,30)"/><rect x="36" y="36" width="12" height="12" transform="rotate(0,42,42)"/><rect x="36" y="48" width="12" height="12" transform="rotate(0,42,54)"/><rect x="48" y="24" width="12" height="12" transform="rotate(0,54,30)"/><rect x="48" y="36" width="12" height="12" transform="rotate(0,54,42)"/><rect x="48" y="48" width="12" height="12" transform="rotate(0,54,54)"/></g><g class="corners-square-color-1-0"><rect x="216" y="0" width="12" height="12" transform="rotate(0,222,6)"/><rect x="216" y="12" width="12" height="12" transform="rotate(0,222,18)"/><rect x="216" y="24" width="12" height="12" transform="rotate(0,222,30)"/><rect x="216" y="36" width="12" height="12" transform="rotate(0,222,42)"/><rect x="216" y="48" width="12" height="12" transform="rotate(0,222,54)"/><rect x="216" y="60" width="12" height="12" transform="rotate(0,222,66)"/><rect x="216" y="72" width="12" height="12" transform="rotate(0,222,78)"/><rect x="228" y="0" width="12" height="12" transform="rotate(0,234,6)"/><rect x="228" y="72" width="12" height="12" transform="rotate(0,234,78)"/><rect x="240" y="0" width="12" height="12" transform="rotate(0,246,6)"/><rect x="240" y="72" width="12" height="12" transform="rotate(0,246,78)"/><rect x="252" y="0" width="12" height="12" transform="rotate(0,258,6)"/><rect x="252" y="72" width="12" height="12" transform="rotate(0,258,78)"/><rect x="264" y="0" width="12" height="12" transform="rotate(0,270,6)"/><rect x="264" y="72" width="12" height="12" transform="rotate(0,270,78)"/><rect x="276" y="0" width="12" height="12" transform="rotate(0,282,6)"/><rect x="276" y="72" width="12" height="12" transform="rotate(0,282,78)"/><rect x="288" y="0" width="12" height="12" transform="rotate(0,294,6)"/><rect x="288" y="12" width="12" height="12" transform="rotate(0,294,18)"/><rect x="288" y="24" width="12" height="12" transform="rotate(0,294,30)"/><rect x="288" y="36" width="12" height="12" transform="rotate(0,294,42)"/><rect x="288" y="48" width="12" height="12" transform="rotate(0,294,54)"/><rect x="288" y="60" width="12" height="12" transform="rotate(0,294,66)"/><rect x="288" y="72" width="12" height="12" transform="rotate(0,294,78)"/></g><g class="corners-dot-color-1-0"><rect x="240" y="24" width="12" height="12" transform="rotate(0,246,30)"/><rect x="240" y="36" width="12" height="12" transform="rotate(0,246,42)"/><rect x="240" y="48" width="12" height="12" transform="rotate(0,246,54)"/><rect x="252" y="24" width="12" height="12" transform="rotate(0,258,30)"/><rect x="252" y="36" width="12" height="12" transform="rotate(0,258,42)"/><rect x="252" y="48" width="12" height="12" transform="rotate(0,258,54)"/><rect x="264" y="24" width="12" height="12" transform="rotate(0,270,30)"/><rect x="264" y="36" width="12" height="12" transform="rotate(0,270,42)"/><rect x="264" y="48" width="12" height="12" transform="rotate(0,270,54)"/></g><g class="corners-square-color-0-1"><rect x="0" y="216" width="12" height="12" transform="rotate(0,6,222)"/><rect x="0" y="228" width="12" height="12" transform="rotate(0,6,234)"/><rect x="0" y="240" width="12" height="12" transform="rotate(0,6,246)"/><rect x="0" y="252" width="12" height="12" transform="rotate(0,6,258)"/><rect x="0" y="264" width="12" height="12" transform="rotate(0,6,270)"/><rect x="0" y="276" width="12" height="12" transform="rotate(0,6,282)"/><rect x="0" y="288" width="12" height="12" transform="rotate(0,6,294)"/><rect x="12" y="216" width="12" height="12" transform="rotate(0,18,222)"/><rect x="12" y="288" width="12" height="12" transform="rotate(0,18,294)"/><rect x="24" y="216" width="12" height="12" transform="rotate(0,30,222)"/><rect x="24" y="288" width="12" height="12" transform="rotate(0,30,294)"/><rect x="36" y="216" width="12" height="12" transform="rotate(0,42,222)"/><rect x="36" y="288" width="12" height="12" transform="rotate(0,42,294)"/><rect x="48" y="216" width="12" height="12" transform="rotate(0,54,222)"/><rect x="48" y="288" width="12" height="12" transform="rotate(0,54,294)"/><rect x="60" y="216" width="12" height="12" transform="rotate(0,66,222)"/><rect x="60" y="288" width="12" height="12" transform="rotate(0,66,294)"/><rect x="72" y="216" width="12" height="12" transform="rotate(0,78,222)"/><rect x="72" y="228" width="12" height="12" transform="rotate(0,78,234)"/><rect x="72" y="240" width="12" height="12" transform="rotate(0,78,246)"/><rect x="72" y="252" width="12" height="12" transform="rotate(0,78,258)"/><rect x="72" y="264" width="12" height="12" transform="rotate(0,78,270)"/><rect x="72" y="276" width="12" height="12" transform="rotate(0,78,282)"/><rect x="72" y="288" width="12" height="12" transform="rotate(0,78,294)"/></g><g class="corners-dot-color-0-1"><rect x="24" y="240" width="12" height="12" transform="rotate(0,30,246)"/><rect x="24" y="252" width="12" height="12" transform="rotate(0,30,258)"/><rect x="24" y="264" width="12" height="12" transform="rotate(0,30,270)"/><rect x="36" y="240" width="12" height="12" transform="rotate(0,42,246)"/><rect x="36" y="252" width="12" height="12" transform="rotate(0,42,258)"/><rect x="36" y="264" width="12" height="12" transform="rotate(0,42,270)"/><rect x="48" y="240" width="12" height="12" transform="rotate(0,54,246)"/><rect x="48" y="252" width="12" height="12" transform="rotate(0,54,258)"/><rect x="48" y="264" width="12" height="12" transform="rotate(0,54,270)"/></g></svg></g></svg></svg>